# xmcd
#
# Track frame offsets:
#	150
#	19809
#	41944
#	56726
#
# Disc length: 1037 seconds
#
# Revision: 1
# Processed by: cddbd v1.5.1PL2 Copyright (c) Steve Scherf et al.
# Submitted via: audiograbber 1.83.01
#
DISCID=33040b04
DTITLE=Lionel Richie - Long Long Way to go
DYEAR=2004
DGENRE=
TTITLE0=Long Long way to go
TTITLE1=I Still Believe
TTITLE2=Just for you
TTITLE3=Medley
EXTD=
EXTT0=
EXTT1=
EXTT2=
EXTT3=
PLAYORDER=
